<mxfile host="app.diagrams.net" modified="2023-12-03T22:20:35.462Z" agent="Mozilla/5.0 (X11; Linux x86_64; rv:120.0) Gecko/20100101 Firefox/120.0" etag="QJf7Z9WEDlNlMwCGChTj" version="22.1.5" type="device">
  <diagram name="Page-1" id="sBzg-U20K1qhpTmqH94P">
    <mxGraphModel dx="794" dy="782" grid="1" gridSize="10" guides="1" tooltips="1" connect="1" arrows="1" fold="1" page="1" pageScale="1" pageWidth="850" pageHeight="1100" math="0" shadow="0">
      <root>
        <mxCell id="0" />
        <mxCell id="1" parent="0" />
        <mxCell id="JjWa9XC1oBbPK7ERYfND-1" value="" style="shape=umlActor;verticalLabelPosition=bottom;verticalAlign=top;html=1;outlineConnect=0;" parent="1" vertex="1">
          <mxGeometry x="410" y="40" width="30" height="60" as="geometry" />
        </mxCell>
        <mxCell id="JjWa9XC1oBbPK7ERYfND-4" style="edgeStyle=orthogonalEdgeStyle;rounded=0;orthogonalLoop=1;jettySize=auto;html=1;dashed=1;" parent="1" source="JjWa9XC1oBbPK7ERYfND-2" target="JjWa9XC1oBbPK7ERYfND-3" edge="1">
          <mxGeometry relative="1" as="geometry" />
        </mxCell>
        <mxCell id="JjWa9XC1oBbPK7ERYfND-5" value="HTTP" style="edgeLabel;html=1;align=center;verticalAlign=middle;resizable=0;points=[];" parent="JjWa9XC1oBbPK7ERYfND-4" vertex="1" connectable="0">
          <mxGeometry x="0.0038" y="-1" relative="1" as="geometry">
            <mxPoint x="26" as="offset" />
          </mxGeometry>
        </mxCell>
        <mxCell id="JjWa9XC1oBbPK7ERYfND-2" value="GUI" style="rounded=1;whiteSpace=wrap;html=1;fillColor=#1ba1e2;strokeColor=#006EAF;fontColor=#ffffff;fontStyle=1" parent="1" vertex="1">
          <mxGeometry x="365" y="120" width="120" height="60" as="geometry" />
        </mxCell>
        <mxCell id="JjWa9XC1oBbPK7ERYfND-11" style="rounded=1;orthogonalLoop=1;jettySize=auto;html=1;edgeStyle=orthogonalEdgeStyle;exitX=0.456;exitY=1.01;exitDx=0;exitDy=0;exitPerimeter=0;" parent="1" source="JjWa9XC1oBbPK7ERYfND-3" target="JjWa9XC1oBbPK7ERYfND-10" edge="1">
          <mxGeometry relative="1" as="geometry" />
        </mxCell>
        <mxCell id="JjWa9XC1oBbPK7ERYfND-14" style="edgeStyle=orthogonalEdgeStyle;rounded=1;orthogonalLoop=1;jettySize=auto;html=1;exitX=0.553;exitY=0.999;exitDx=0;exitDy=0;exitPerimeter=0;" parent="1" source="JjWa9XC1oBbPK7ERYfND-3" target="JjWa9XC1oBbPK7ERYfND-13" edge="1">
          <mxGeometry relative="1" as="geometry" />
        </mxCell>
        <mxCell id="JjWa9XC1oBbPK7ERYfND-24" style="edgeStyle=orthogonalEdgeStyle;rounded=0;orthogonalLoop=1;jettySize=auto;html=1;" parent="1" source="JjWa9XC1oBbPK7ERYfND-3" target="JjWa9XC1oBbPK7ERYfND-18" edge="1">
          <mxGeometry relative="1" as="geometry" />
        </mxCell>
        <mxCell id="JjWa9XC1oBbPK7ERYfND-3" value="Service" style="rounded=1;whiteSpace=wrap;html=1;fillColor=#1ba1e2;strokeColor=#006EAF;fontColor=#ffffff;fontStyle=1" parent="1" vertex="1">
          <mxGeometry x="365" y="240" width="120" height="60" as="geometry" />
        </mxCell>
        <mxCell id="JjWa9XC1oBbPK7ERYfND-6" value="" style="endArrow=classic;html=1;rounded=0;" parent="1" edge="1">
          <mxGeometry width="50" height="50" relative="1" as="geometry">
            <mxPoint x="330" y="269.8" as="sourcePoint" />
            <mxPoint x="360" y="269.8" as="targetPoint" />
          </mxGeometry>
        </mxCell>
        <mxCell id="JjWa9XC1oBbPK7ERYfND-9" value="" style="endArrow=none;html=1;rounded=0;" parent="1" edge="1">
          <mxGeometry width="50" height="50" relative="1" as="geometry">
            <mxPoint x="347" y="275" as="sourcePoint" />
            <mxPoint x="347" y="265" as="targetPoint" />
          </mxGeometry>
        </mxCell>
        <mxCell id="JjWa9XC1oBbPK7ERYfND-20" style="edgeStyle=orthogonalEdgeStyle;rounded=1;orthogonalLoop=1;jettySize=auto;html=1;entryX=0.416;entryY=0.01;entryDx=0;entryDy=0;entryPerimeter=0;" parent="1" source="JjWa9XC1oBbPK7ERYfND-10" target="JjWa9XC1oBbPK7ERYfND-18" edge="1">
          <mxGeometry relative="1" as="geometry" />
        </mxCell>
        <mxCell id="JjWa9XC1oBbPK7ERYfND-22" style="rounded=0;orthogonalLoop=1;jettySize=auto;html=1;" parent="1" source="JjWa9XC1oBbPK7ERYfND-10" target="JjWa9XC1oBbPK7ERYfND-21" edge="1">
          <mxGeometry relative="1" as="geometry" />
        </mxCell>
        <mxCell id="JjWa9XC1oBbPK7ERYfND-10" value="User Manager" style="rounded=1;whiteSpace=wrap;html=1;fillColor=#1ba1e2;strokeColor=#006EAF;fontColor=#ffffff;fontStyle=1" parent="1" vertex="1">
          <mxGeometry x="245" y="400" width="120" height="60" as="geometry" />
        </mxCell>
        <mxCell id="JjWa9XC1oBbPK7ERYfND-12" value="" style="endArrow=classic;html=1;rounded=0;edgeStyle=orthogonalEdgeStyle;curved=1;" parent="1" edge="1">
          <mxGeometry width="50" height="50" relative="1" as="geometry">
            <mxPoint x="305" y="384" as="sourcePoint" />
            <mxPoint x="316" y="360" as="targetPoint" />
          </mxGeometry>
        </mxCell>
        <mxCell id="JjWa9XC1oBbPK7ERYfND-19" style="edgeStyle=orthogonalEdgeStyle;rounded=1;orthogonalLoop=1;jettySize=auto;html=1;entryX=0.582;entryY=0;entryDx=0;entryDy=0;entryPerimeter=0;" parent="1" source="JjWa9XC1oBbPK7ERYfND-13" target="JjWa9XC1oBbPK7ERYfND-18" edge="1">
          <mxGeometry relative="1" as="geometry" />
        </mxCell>
        <mxCell id="ORFWyQlfMhFtl15MFlqk-4" style="rounded=0;orthogonalLoop=1;jettySize=auto;html=1;" edge="1" parent="1" source="JjWa9XC1oBbPK7ERYfND-13" target="ORFWyQlfMhFtl15MFlqk-1">
          <mxGeometry relative="1" as="geometry" />
        </mxCell>
        <mxCell id="JjWa9XC1oBbPK7ERYfND-13" value="Coordinates" style="rounded=1;whiteSpace=wrap;html=1;fillColor=#1ba1e2;strokeColor=#006EAF;fontColor=#ffffff;fontStyle=1" parent="1" vertex="1">
          <mxGeometry x="485" y="400" width="120" height="60" as="geometry" />
        </mxCell>
        <mxCell id="JjWa9XC1oBbPK7ERYfND-15" value="" style="endArrow=classic;html=1;rounded=0;edgeStyle=orthogonalEdgeStyle;curved=1;" parent="1" edge="1">
          <mxGeometry width="50" height="50" relative="1" as="geometry">
            <mxPoint x="545" y="381" as="sourcePoint" />
            <mxPoint x="535" y="360" as="targetPoint" />
          </mxGeometry>
        </mxCell>
        <mxCell id="JjWa9XC1oBbPK7ERYfND-16" value="" style="endArrow=classic;html=1;rounded=0;edgeStyle=orthogonalEdgeStyle;curved=1;" parent="1" edge="1">
          <mxGeometry width="50" height="50" relative="1" as="geometry">
            <mxPoint x="305" y="384" as="sourcePoint" />
            <mxPoint x="316" y="360" as="targetPoint" />
          </mxGeometry>
        </mxCell>
        <mxCell id="JjWa9XC1oBbPK7ERYfND-18" value="Data" style="rounded=1;whiteSpace=wrap;html=1;fillColor=#1ba1e2;strokeColor=#006EAF;fontColor=#ffffff;fontStyle=1" parent="1" vertex="1">
          <mxGeometry x="365" y="600" width="120" height="60" as="geometry" />
        </mxCell>
        <mxCell id="JjWa9XC1oBbPK7ERYfND-21" value="" style="ellipse;whiteSpace=wrap;html=1;aspect=fixed;" parent="1" vertex="1">
          <mxGeometry x="160" y="510" width="20" height="20" as="geometry" />
        </mxCell>
        <mxCell id="JjWa9XC1oBbPK7ERYfND-25" value="External System" style="text;html=1;align=center;verticalAlign=middle;resizable=0;points=[];autosize=1;strokeColor=none;fillColor=none;" parent="1" vertex="1">
          <mxGeometry x="115" y="535" width="110" height="30" as="geometry" />
        </mxCell>
        <mxCell id="JjWa9XC1oBbPK7ERYfND-29" value="" style="endArrow=classic;html=1;rounded=0;" parent="1" edge="1">
          <mxGeometry width="50" height="50" relative="1" as="geometry">
            <mxPoint x="330" y="629.8" as="sourcePoint" />
            <mxPoint x="360" y="629.8" as="targetPoint" />
          </mxGeometry>
        </mxCell>
        <mxCell id="JjWa9XC1oBbPK7ERYfND-30" value="" style="endArrow=none;html=1;rounded=0;" parent="1" edge="1">
          <mxGeometry width="50" height="50" relative="1" as="geometry">
            <mxPoint x="347" y="635" as="sourcePoint" />
            <mxPoint x="347" y="625" as="targetPoint" />
          </mxGeometry>
        </mxCell>
        <mxCell id="ORFWyQlfMhFtl15MFlqk-1" value="" style="ellipse;whiteSpace=wrap;html=1;aspect=fixed;" vertex="1" parent="1">
          <mxGeometry x="675" y="510" width="20" height="20" as="geometry" />
        </mxCell>
        <mxCell id="ORFWyQlfMhFtl15MFlqk-2" value="&lt;div&gt;External System&lt;/div&gt;&lt;div&gt;(Overpass API)&lt;br&gt;&lt;/div&gt;" style="text;html=1;align=center;verticalAlign=middle;resizable=0;points=[];autosize=1;strokeColor=none;fillColor=none;" vertex="1" parent="1">
          <mxGeometry x="630" y="530" width="110" height="40" as="geometry" />
        </mxCell>
      </root>
    </mxGraphModel>
  </diagram>
</mxfile>
